<svg width="24" height="24" viewBox="0 0 24 24" fill="none" xmlns="http://www.w3.org/2000/svg">
<path d="M16.7402 18.75C17.1542 18.7503 17.4902 19.0859 17.4902 19.5C17.4902 19.9141 17.1542 20.2497 16.7402 20.25H7.25977C6.84566 20.2499 6.50977 19.9141 6.50977 19.5C6.50977 19.0859 6.84566 18.7501 7.25977 18.75H16.7402Z" fill="white"/>
<path d="M21 13.75C21.4142 13.75 21.75 14.0858 21.75 14.5C21.75 14.9142 21.4142 15.25 21 15.25H3C2.58579 15.25 2.25 14.9142 2.25 14.5C2.25 14.0858 2.58579 13.75 3 13.75H21Z" fill="white"/>
<path d="M16.7402 8.75C17.1542 8.75025 17.4902 9.08594 17.4902 9.5C17.4902 9.91406 17.1542 10.2497 16.7402 10.25H7.25977C6.84566 10.2499 6.50977 9.91413 6.50977 9.5C6.50977 9.08587 6.84566 8.75013 7.25977 8.75H16.7402Z" fill="white"/>
<path d="M21 3.75C21.4142 3.75 21.75 4.08579 21.75 4.5C21.75 4.91421 21.4142 5.25 21 5.25H3C2.58579 5.25 2.25 4.91421 2.25 4.5C2.25 4.08579 2.58579 3.75 3 3.75H21Z" fill="white"/>
</svg>
