<svg width="24" height="24" viewBox="0 0 24 24" fill="none" xmlns="http://www.w3.org/2000/svg">
<path d="M21 18.75C21.4141 18.7501 21.75 19.0859 21.75 19.5C21.75 19.9141 21.4141 20.2499 21 20.25H11.5303C11.1161 20.25 10.7803 19.9142 10.7803 19.5C10.7803 19.0858 11.1161 18.75 11.5303 18.75H21Z" fill="white"/>
<path d="M21 13.75C21.4142 13.75 21.75 14.0858 21.75 14.5C21.75 14.9142 21.4142 15.25 21 15.25H3C2.58579 15.25 2.25 14.9142 2.25 14.5C2.25 14.0858 2.58579 13.75 3 13.75H21Z" fill="white"/>
<path d="M21 8.75C21.4141 8.75013 21.75 9.08587 21.75 9.5C21.75 9.91413 21.4141 10.2499 21 10.25H11.5303C11.1161 10.25 10.7803 9.91421 10.7803 9.5C10.7803 9.08579 11.1161 8.75 11.5303 8.75H21Z" fill="white"/>
<path d="M21 3.75C21.4142 3.75 21.75 4.08579 21.75 4.5C21.75 4.91421 21.4142 5.25 21 5.25H3C2.58579 5.25 2.25 4.91421 2.25 4.5C2.25 4.08579 2.58579 3.75 3 3.75H21Z" fill="white"/>
</svg>
