<svg width="24" height="24" viewBox="0 0 24 24" fill="none" xmlns="http://www.w3.org/2000/svg">
<path d="M10.7392 8.22058C11.0316 7.92734 11.5064 7.92627 11.7997 8.21863C12.093 8.51111 12.0932 8.98587 11.8007 9.27917L8.80852 12.2792L11.8007 15.2801C12.0931 15.5734 12.0928 16.0482 11.7997 16.3407C11.5065 16.633 11.0317 16.6327 10.7392 16.3397L7.21868 12.8094C6.927 12.5167 6.92689 12.0425 7.21868 11.7499L10.7392 8.22058Z" fill="white"/>
<path d="M15.7597 8.22058C16.0522 7.92747 16.527 7.92621 16.8202 8.21863C17.1134 8.51106 17.1135 8.9859 16.8212 9.27917L13.829 12.2792L16.8212 15.2801C17.1135 15.5733 17.1131 16.0482 16.8202 16.3407C16.5271 16.633 16.0522 16.6326 15.7597 16.3397L12.2392 12.8094C11.9474 12.5167 11.9473 12.0426 12.2392 11.7499L15.7597 8.22058Z" fill="white"/>
</svg>
