<svg width="24" height="24" viewBox="0 0 24 24" fill="none" xmlns="http://www.w3.org/2000/svg">
<path fill-rule="evenodd" clip-rule="evenodd" d="M12.0001 1.75C15.0343 1.75006 17.5001 4.21583 17.5001 7.25C17.5001 8.90138 16.7683 10.3829 15.6134 11.3916C18.0549 11.9527 19.88 14.1399 19.88 16.75C19.88 19.7842 17.4142 22.25 14.38 22.25H6.88C5.36579 22.25 4.13 21.0142 4.13 19.5V4.5C4.13 2.98579 5.36579 1.75 6.88 1.75H12.0001ZM5.63 19.5C5.63 20.1858 6.19422 20.75 6.88 20.75H14.38C16.5858 20.75 18.38 18.9558 18.38 16.75C18.38 14.5442 16.5858 12.75 14.38 12.75H5.63V19.5ZM6.88 3.25C6.19422 3.25 5.63 3.81421 5.63 4.5V11.25H12.0001C14.2059 11.2499 16.0001 9.45575 16.0001 7.25C16.0001 5.04425 14.2059 3.25006 12.0001 3.25H6.88Z" fill="white"/>
</svg>
