<svg width="24" height="24" viewBox="0 0 24 24" fill="none" xmlns="http://www.w3.org/2000/svg">
<path d="M8.30371 15.7002C8.8558 15.7004 9.30371 16.148 9.30371 16.7002C9.30361 17.2523 8.85574 17.7 8.30371 17.7002H8.29395C7.74189 17.7 7.29404 17.2523 7.29395 16.7002C7.29395 16.148 7.74183 15.7004 8.29395 15.7002H8.30371Z" fill="white"/>
<path d="M12.0049 15.7002C12.557 15.7004 13.0049 16.148 13.0049 16.7002C13.0048 17.2523 12.5569 17.7 12.0049 17.7002H11.9951C11.4431 17.7 10.9952 17.2523 10.9951 16.7002C10.9951 16.148 11.443 15.7004 11.9951 15.7002H12.0049Z" fill="white"/>
<path d="M15.7041 15.7002C16.2562 15.7004 16.7041 16.148 16.7041 16.7002C16.704 17.2523 16.2561 17.7 15.7041 17.7002H15.6943C15.1423 17.7 14.6944 17.2523 14.6943 16.7002C14.6943 16.148 15.1422 15.7004 15.6943 15.7002H15.7041Z" fill="white"/>
<path d="M8.30371 12.7002C8.8558 12.7004 9.30371 13.148 9.30371 13.7002C9.30361 14.2523 8.85574 14.7 8.30371 14.7002H8.29395C7.74189 14.7 7.29404 14.2523 7.29395 13.7002C7.29395 13.148 7.74183 12.7004 8.29395 12.7002H8.30371Z" fill="white"/>
<path d="M12.0049 12.7002C12.557 12.7004 13.0049 13.148 13.0049 13.7002C13.0048 14.2523 12.5569 14.7 12.0049 14.7002H11.9951C11.4431 14.7 10.9952 14.2523 10.9951 13.7002C10.9951 13.148 11.443 12.7004 11.9951 12.7002H12.0049Z" fill="white"/>
<path d="M15.7041 12.7002C16.2562 12.7004 16.7041 13.148 16.7041 13.7002C16.704 14.2523 16.2561 14.7 15.7041 14.7002H15.6943C15.1423 14.7 14.6944 14.2523 14.6943 13.7002C14.6943 13.148 15.1422 12.7004 15.6943 12.7002H15.7041Z" fill="white"/>
<path fill-rule="evenodd" clip-rule="evenodd" d="M16 1.25C16.4142 1.25 16.75 1.58579 16.75 2V2.78027C18.2859 2.90804 19.504 3.44001 20.3623 4.36426C21.3466 5.42424 21.75 6.88503 21.75 8.5V17C21.75 18.615 21.3466 20.0758 20.3623 21.1357C19.3687 22.2057 17.8929 22.75 16 22.75H8C6.10712 22.75 4.63131 22.2057 3.6377 21.1357C2.65342 20.0758 2.25 18.615 2.25 17V8.5C2.25 6.88503 2.65342 5.42424 3.6377 4.36426C4.49599 3.44001 5.71408 2.90804 7.25 2.78027V2C7.25 1.58579 7.58579 1.25 8 1.25C8.41421 1.25 8.75 1.58579 8.75 2V2.75H15.25V2C15.25 1.58579 15.5858 1.25 16 1.25ZM3.75 17C3.75 18.385 4.09664 19.4242 4.7373 20.1143C5.36869 20.7942 6.39295 21.25 8 21.25H16C17.607 21.25 18.6313 20.7942 19.2627 20.1143C19.9034 19.4242 20.25 18.385 20.25 17V9.83984H3.75V17ZM8.75 5C8.75 5.41421 8.41421 5.75 8 5.75C7.58579 5.75 7.25 5.41421 7.25 5V4.28711C6.06512 4.40761 5.26431 4.81819 4.7373 5.38574C4.12158 6.04889 3.77879 7.03468 3.75293 8.33984H20.2471C20.2212 7.03468 19.8784 6.04889 19.2627 5.38574C18.7357 4.81819 17.9349 4.40761 16.75 4.28711V5C16.75 5.41421 16.4142 5.75 16 5.75C15.5858 5.75 15.25 5.41421 15.25 5V4.25H8.75V5Z" fill="white"/>
</svg>
