<svg width="24" height="24" viewBox="0 0 24 24" fill="none" xmlns="http://www.w3.org/2000/svg">
<path fill-rule="evenodd" clip-rule="evenodd" d="M13.1699 1.25C18.4146 1.25004 22.75 5.22826 22.75 10.2402C22.7499 13.0486 21.379 15.5338 19.2666 17.1709L19.6045 19.8984V19.9004C19.7775 21.3374 18.2306 22.3685 16.9766 21.6143L12.957 19.2256C12.6744 19.2202 12.3949 19.204 12.1182 19.1777C11.0252 20.3241 9.45431 21.048 7.71582 21.1035L5.27344 22.5547L5.27246 22.5537C4.28096 23.1524 3.07497 22.3179 3.20508 21.2119L3.20605 21.2051L3.40137 19.6641C2.08917 18.5972 1.25 17.0126 1.25 15.2295C1.25016 13.3526 2.17524 11.6974 3.59863 10.6309C3.5928 10.4997 3.58985 10.3696 3.58984 10.2402C3.58984 5.22828 7.92522 1.25006 13.1699 1.25ZM7.12305 10.8535C6.87505 10.8712 6.6332 10.9067 6.39844 10.958C6.16334 11.0094 5.93536 11.0765 5.71582 11.1592C5.49644 11.2418 5.28555 11.3397 5.08398 11.4512C4.98338 11.5068 4.8848 11.5655 4.78906 11.6279L4.78418 11.6318C3.54019 12.4266 2.75017 13.7483 2.75 15.2295C2.75 16.6428 3.47217 17.9117 4.62793 18.7139C4.85721 18.8732 4.97925 19.1469 4.94434 19.4238L4.72656 21.1328L7.11719 19.7148L7.20703 19.6699C7.29942 19.6307 7.39895 19.6094 7.5 19.6094C9.04178 19.6094 10.3972 18.9351 11.2412 17.9121L11.249 17.9043C11.7628 17.3002 12.1026 16.5725 12.2119 15.7842C12.2371 15.6023 12.25 15.417 12.25 15.2295C12.25 14.9192 12.2139 14.6154 12.1465 14.3213C11.794 12.7836 10.5668 11.5161 8.93164 11.041C8.482 10.9104 8.00148 10.8398 7.5 10.8398C7.37292 10.8398 7.24724 10.8446 7.12305 10.8535ZM13.1699 2.75C8.8226 2.75006 5.35718 5.90384 5.10547 9.78711C5.16316 9.76446 5.22176 9.74367 5.28027 9.72266C5.30149 9.71504 5.32243 9.70662 5.34375 9.69922C5.46297 9.65783 5.5837 9.61946 5.70605 9.58496C5.73581 9.57657 5.76596 9.5695 5.7959 9.56152C5.9074 9.53182 6.01994 9.50434 6.13379 9.48047C6.14903 9.47728 6.16441 9.47477 6.17969 9.47168C6.31811 9.4437 6.45805 9.41954 6.59961 9.40039C6.68373 9.38902 6.76837 9.37927 6.85352 9.37109C6.87919 9.36862 6.90491 9.36643 6.93066 9.36426C6.98872 9.35936 7.04698 9.35496 7.10547 9.35156C7.14898 9.34903 7.19259 9.34642 7.23633 9.34473C7.32377 9.34134 7.41168 9.33984 7.5 9.33984C7.9256 9.33985 8.34248 9.38078 8.74609 9.45801C8.94812 9.49665 9.14696 9.54398 9.3418 9.60059C10.8991 10.0531 12.209 11.065 12.9863 12.4014C13.035 12.4851 13.0815 12.5701 13.126 12.6562C13.2099 12.819 13.2855 12.9862 13.3535 13.1572C13.4542 13.4104 13.5363 13.6722 13.5996 13.9414C13.6586 14.1919 13.7005 14.4486 13.7246 14.7109C13.7403 14.8817 13.75 15.0545 13.75 15.2295C13.75 15.3297 13.7465 15.4294 13.7412 15.5283C13.7399 15.5528 13.738 15.5772 13.7363 15.6016C13.7306 15.6864 13.7224 15.7707 13.7129 15.8545C13.7105 15.8753 13.7087 15.8962 13.7061 15.917C13.6258 16.5589 13.4349 17.1688 13.1523 17.7295L13.1699 17.7305L13.2705 17.7363C13.3699 17.7498 13.4659 17.7835 13.5527 17.835L17.7432 20.3252L17.748 20.3281C17.9125 20.4277 18.14 20.3016 18.1152 20.082L17.7256 16.9219C17.6916 16.6467 17.8121 16.375 18.0391 16.2158C19.999 14.8421 21.2499 12.6718 21.25 10.2402C21.25 6.15225 17.6851 2.75004 13.1699 2.75Z" fill="white"/>
</svg>
