<svg width="24" height="24" viewBox="0 0 24 24" fill="none" xmlns="http://www.w3.org/2000/svg">
<path d="M11 16.2497C11.4141 16.2497 11.7498 16.5856 11.75 16.9997C11.75 17.4139 11.4142 17.7497 11 17.7497H7C6.58579 17.7497 6.25 17.4139 6.25 16.9997C6.25017 16.5856 6.58589 16.2497 7 16.2497H11Z" fill="white"/>
<path d="M13 12.2497C13.4141 12.2497 13.7498 12.5856 13.75 12.9997C13.75 13.4139 13.4142 13.7497 13 13.7497H7C6.58579 13.7497 6.25 13.4139 6.25 12.9997C6.25017 12.5856 6.58589 12.2497 7 12.2497H13Z" fill="white"/>
<path fill-rule="evenodd" clip-rule="evenodd" d="M14.0234 1.25067C14.0322 1.25096 14.041 1.25105 14.0498 1.25165C14.0803 1.25365 14.1102 1.25783 14.1396 1.26337C14.1422 1.26386 14.1449 1.26383 14.1475 1.26434C14.1527 1.26539 14.1579 1.26709 14.1631 1.26825C14.2008 1.27669 14.2373 1.28922 14.2734 1.30341C14.2874 1.30887 14.301 1.31472 14.3145 1.32098C14.3419 1.33371 14.3686 1.34786 14.3945 1.36395C14.406 1.37108 14.4177 1.37772 14.4287 1.38544C14.4644 1.41036 14.4988 1.43793 14.5303 1.46942L22.5303 9.46942C22.5604 9.49955 22.5862 9.5331 22.6104 9.56708C22.6202 9.58094 22.6288 9.59551 22.6377 9.61005C22.6517 9.63296 22.6644 9.65626 22.6758 9.68036C22.683 9.69551 22.6901 9.71057 22.6963 9.72626C22.7109 9.76324 22.7229 9.80086 22.7314 9.83954C22.739 9.87425 22.7445 9.90966 22.7471 9.94598C22.7478 9.95574 22.7477 9.96549 22.748 9.97528C22.7483 9.9834 22.75 9.99151 22.75 9.99969V14.9997C22.75 17.5736 22.2396 19.5705 20.9053 20.905C19.5708 22.2394 17.574 22.7497 15 22.7497H9C6.42603 22.7497 4.4292 22.2394 3.09473 20.905C1.76038 19.5705 1.25 17.5736 1.25 14.9997V8.99969C1.25004 6.42588 1.76031 4.42883 3.09473 3.09442C4.42919 1.76007 6.42613 1.24969 9 1.24969H14C14.0078 1.24969 14.0157 1.25043 14.0234 1.25067ZM9 2.74969C6.57411 2.74969 5.07082 3.23954 4.15527 4.15497C3.23978 5.07046 2.75004 6.57386 2.75 8.99969V14.9997C2.75 17.4256 3.23985 18.9289 4.15527 19.8444C5.0708 20.76 6.57397 21.2497 9 21.2497H15C17.426 21.2497 18.9292 20.76 19.8447 19.8444C20.7602 18.9289 21.25 17.4256 21.25 14.9997V10.7497H18C16.4585 10.7497 15.1921 10.5024 14.3447 9.65497C13.4974 8.80755 13.25 7.54115 13.25 5.99969V2.74969H9ZM14.75 5.99969C14.75 7.45795 15.0028 8.19181 15.4053 8.59442C15.8079 8.997 16.5415 9.24969 18 9.24969H20.1895L14.75 3.81024V5.99969Z" fill="white"/>
</svg>
