<svg width="24" height="24" viewBox="0 0 24 24" fill="none" xmlns="http://www.w3.org/2000/svg">
<path d="M16.5044 8.15332C18.4162 8.31797 19.9141 8.90539 20.9077 10.1299C21.8844 11.3337 22.2603 13.0168 22.2603 15.1104V15.2402C22.2602 17.5492 21.802 19.3616 20.5864 20.5771C19.3708 21.7925 17.5585 22.25 15.2495 22.25H8.73975C6.43099 22.25 4.6194 21.7924 3.40381 20.5771C2.18825 19.3616 1.73003 17.5492 1.72998 15.2402V15.1104C1.72999 13.032 2.10102 11.3596 3.06201 10.1582C4.0404 8.93524 5.51572 8.33979 7.3999 8.16406C7.81233 8.12562 8.17786 8.42839 8.21631 8.84082C8.25453 9.25309 7.95185 9.61879 7.53955 9.65723C5.88417 9.81156 4.86443 10.3054 4.23291 11.0947C3.58418 11.9058 3.22999 13.169 3.22998 15.1104V15.2402C3.23003 17.4008 3.66754 18.7198 4.46436 19.5166C5.26125 20.3131 6.5795 20.75 8.73975 20.75H15.2495C17.41 20.75 18.729 20.3132 19.5259 19.5166C20.3227 18.7198 20.7602 17.4008 20.7603 15.2402V15.1104C20.7602 13.1542 20.4007 11.8863 19.7427 11.0752C19.1013 10.2849 18.0634 9.79282 16.3755 9.64746C15.963 9.61185 15.6576 9.24841 15.6929 8.83594C15.7285 8.42331 16.0917 8.11779 16.5044 8.15332Z" fill="white"/>
<path d="M12.0005 1.25C12.4145 1.25026 12.7505 1.58595 12.7505 2V14.1885L14.8198 12.1201C15.1127 11.8273 15.5875 11.8273 15.8804 12.1201C16.173 12.413 16.1731 12.8878 15.8804 13.1807L12.5298 16.5303C12.2369 16.8229 11.7621 16.8229 11.4692 16.5303L8.11963 13.1807C7.82681 12.8878 7.82696 12.413 8.11963 12.1201C8.41252 11.8272 8.88728 11.8272 9.18018 12.1201L11.2505 14.1904V2C11.2505 1.58579 11.5863 1.25 12.0005 1.25Z" fill="white"/>
</svg>
