<svg width="24" height="24" viewBox="0 0 24 24" fill="none" xmlns="http://www.w3.org/2000/svg">
<path d="M15 10.1084C15.2932 9.81609 15.7681 9.81738 16.0605 10.1104C16.353 10.4036 16.3528 10.8784 16.0596 11.1709L12.5293 14.6904C12.2366 14.9823 11.7624 14.9823 11.4697 14.6904L7.94043 11.1709C7.64751 10.8785 7.64633 10.4036 7.93848 10.1104C8.23078 9.81728 8.70569 9.81648 8.99902 10.1084L11.999 13.1006L15 10.1084Z" fill="white"/>
<path fill-rule="evenodd" clip-rule="evenodd" d="M15 1.25C17.574 1.25 19.5708 1.76026 20.9053 3.09473C22.2397 4.4292 22.75 6.42603 22.75 9V15C22.75 17.574 22.2397 19.5708 20.9053 20.9053C19.5708 22.2397 17.574 22.75 15 22.75H9C6.42603 22.75 4.4292 22.2397 3.09473 20.9053C1.76026 19.5708 1.25 17.574 1.25 15V9C1.25 6.42603 1.76026 4.4292 3.09473 3.09473C4.4292 1.76026 6.42603 1.25 9 1.25H15ZM9 2.75C6.57397 2.75 5.0708 3.23974 4.15527 4.15527C3.23974 5.0708 2.75 6.57397 2.75 9V15C2.75 17.426 3.23974 18.9292 4.15527 19.8447C5.0708 20.7603 6.57397 21.25 9 21.25H15C17.426 21.25 18.9292 20.7603 19.8447 19.8447C20.7603 18.9292 21.25 17.426 21.25 15V9C21.25 6.57397 20.7603 5.0708 19.8447 4.15527C18.9292 3.23974 17.426 2.75 15 2.75H9Z" fill="white"/>
</svg>
