<svg width="24" height="24" viewBox="0 0 24 24" fill="none" xmlns="http://www.w3.org/2000/svg">
<path fill-rule="evenodd" clip-rule="evenodd" d="M21.4699 1.46985C21.7628 1.17712 22.2376 1.17713 22.5305 1.46985C22.8231 1.76272 22.8231 2.23757 22.5305 2.53039L2.53045 22.5304C2.23763 22.8231 1.76278 22.823 1.46991 22.5304C1.17719 22.2375 1.17718 21.7627 1.46991 21.4698L4.84198 18.0968C3.88782 17.23 3.01227 16.1885 2.25702 15.003C1.7123 14.1489 1.46509 13.0535 1.46502 12.005C1.46508 10.9559 1.71264 9.86036 2.25799 9.00598C4.64888 5.24816 8.15252 2.97964 12.0002 2.97961C14.1335 2.97965 16.1821 3.68574 17.9797 4.9591L21.4699 1.46985ZM12.0002 4.47961C8.78842 4.47964 5.71169 6.37145 3.52264 9.81262C3.16816 10.368 2.96508 11.1644 2.96502 12.005C2.96508 12.7403 3.12052 13.441 3.39666 13.9767L3.52264 14.1964L3.81073 14.632C4.44341 15.5535 5.15119 16.3599 5.9035 17.0353L8.45526 14.4835C7.96101 13.7808 7.67013 12.9264 7.6701 12.0001C7.6701 9.60591 9.60597 7.67004 12.0002 7.67004C12.9264 7.67007 13.7809 7.96095 14.4836 8.4552L16.9015 6.03723C15.3869 5.01956 13.7127 4.47964 12.0002 4.47961ZM12.0002 9.17004C10.4344 9.17004 9.1701 10.4343 9.1701 12.0001C9.17013 12.5101 9.30514 12.9852 9.5412 13.3976L13.3976 9.54113C12.9853 9.30507 12.5102 9.17007 12.0002 9.17004Z" fill="white"/>
<path d="M19.5803 7.34582C19.903 7.08634 20.3753 7.13744 20.6349 7.46008C21.0183 7.93671 21.395 8.44897 21.7424 8.99621L21.841 9.1593C22.3176 9.98744 22.5353 11.0116 22.5353 11.9952C22.5353 13.0437 22.287 14.1372 21.7424 14.9913L21.7433 14.9923C19.3524 18.7509 15.8483 21.0196 12.0002 21.0196C10.6636 21.0196 9.35496 20.737 8.12909 20.2208C7.7474 20.0601 7.56797 19.6201 7.7287 19.2384C7.88957 18.8569 8.32951 18.6783 8.71112 18.839C9.76521 19.2828 10.8768 19.5196 12.0002 19.5196C15.212 19.5196 18.2887 17.6289 20.4777 14.1876C20.8322 13.6322 21.0353 12.8358 21.0353 11.9952C21.0353 11.1545 20.8323 10.3583 20.4777 9.80285L20.4767 9.80188C20.1646 9.31 19.8221 8.84223 19.466 8.39953C19.2065 8.0768 19.2576 7.60541 19.5803 7.34582Z" fill="white"/>
<path d="M14.7717 12.5646C14.8468 12.1573 15.2385 11.8881 15.6457 11.963C16.0529 12.0381 16.3222 12.4288 16.2473 12.8361C15.9307 14.5517 14.5411 15.9416 12.8254 16.2579C12.4184 16.3326 12.0275 16.0633 11.9523 15.6564C11.8772 15.2492 12.1468 14.8577 12.5539 14.7823C13.6577 14.5787 14.5678 13.6683 14.7717 12.5646Z" fill="white"/>
</svg>
