<svg width="24" height="24" viewBox="0 0 24 24" fill="none" xmlns="http://www.w3.org/2000/svg">
<path d="M12.0001 2.97C15.8477 2.97006 19.3505 5.23862 21.7413 8.99637C22.2867 9.85085 22.5353 10.9461 22.5353 11.9954C22.5352 13.0445 22.2876 14.1391 21.7423 14.9934L21.7413 14.9925C19.3505 18.7507 15.848 21.0197 12.0001 21.0198C8.15197 21.0198 4.64788 18.7511 2.25696 14.9925V14.9915C1.71242 14.1374 1.46503 13.0438 1.46497 11.9954C1.46497 10.9461 1.71252 9.85085 2.25793 8.99637C4.64884 5.23839 8.15236 2.97 12.0001 2.97ZM12.0001 4.47C8.78827 4.47 5.71166 6.36167 3.52258 9.80301V9.80399C3.16805 10.3595 2.96497 11.1547 2.96497 11.9954C2.96502 12.7309 3.12036 13.4313 3.39661 13.9671L3.52258 14.1868V14.1878C5.71165 17.629 8.78831 19.5198 12.0001 19.5198C15.2118 19.5197 18.2877 17.6288 20.4767 14.1878L20.4777 14.1868C20.8322 13.6314 21.0352 12.836 21.0353 11.9954C21.0353 11.1548 20.8321 10.3595 20.4777 9.80399L20.4767 9.80301C18.2876 6.36172 15.2119 4.47006 12.0001 4.47ZM12.0001 7.6702C14.3943 7.67027 16.3302 9.60611 16.3302 12.0003C16.3301 14.3943 14.3942 16.3303 12.0001 16.3304C9.606 16.3304 7.67018 14.3944 7.67004 12.0003C7.67004 9.60606 9.60591 7.6702 12.0001 7.6702ZM12.0001 9.1702C10.4343 9.1702 9.17004 10.4345 9.17004 12.0003C9.17018 13.5659 10.4344 14.8304 12.0001 14.8304C13.5658 14.8303 14.8301 13.5659 14.8302 12.0003C14.8302 10.4345 13.5658 9.17027 12.0001 9.1702Z" fill="white"/>
</svg>
