<svg width="24" height="24" viewBox="0 0 24 24" fill="none" xmlns="http://www.w3.org/2000/svg">
<path d="M7.22068 8.21858C7.514 7.92633 7.98882 7.9273 8.28122 8.22054L11.8008 11.7498C12.0925 12.0426 12.0926 12.5167 11.8008 12.8094L8.28122 16.3397C7.98878 16.6328 7.51396 16.633 7.22068 16.3407C6.92739 16.0482 6.92631 15.5734 7.21872 15.2801L10.2109 12.2791L7.21872 9.27913C6.92649 8.98582 6.9275 8.51099 7.22068 8.21858Z" fill="white"/>
<path d="M12.2402 8.21858C12.5335 7.92633 13.0084 7.9273 13.3008 8.22054L16.8203 11.7498C17.1121 12.0426 17.1122 12.5167 16.8203 12.8094L13.3008 16.3397C13.0083 16.6328 12.5335 16.633 12.2402 16.3407C11.9469 16.0482 11.9459 15.5734 12.2383 15.2801L15.2304 12.2791L12.2383 9.27913C11.946 8.98584 11.9471 8.51099 12.2402 8.21858Z" fill="white"/>
</svg>
