<svg width="24" height="24" viewBox="0 0 24 24" fill="none" xmlns="http://www.w3.org/2000/svg">
<path fill-rule="evenodd" clip-rule="evenodd" d="M12 1.25C17.9371 1.25 22.75 6.06294 22.75 12C22.75 17.9371 17.9371 22.75 12 22.75C6.06294 22.75 1.25 17.9371 1.25 12C1.25 6.06294 6.06294 1.25 12 1.25ZM15.252 17.0283C13.0908 17.2707 10.9092 17.2707 8.74805 17.0283C8.98087 18.2886 9.30154 19.5366 9.71094 20.7627C9.73383 20.8313 9.74542 20.902 9.74805 20.9727C10.469 21.153 11.2232 21.25 12 21.25C12.7776 21.25 13.5323 21.1524 14.2539 20.9717C14.2566 20.9023 14.266 20.8319 14.2891 20.7627C14.6985 19.5366 15.0191 18.2886 15.252 17.0283ZM20.251 16.0205C19.1178 16.3547 17.969 16.617 16.8115 16.8105C16.6125 18.0012 16.3381 19.182 15.9902 20.3467C17.8397 19.4609 19.3467 17.978 20.2666 16.1484C20.2583 16.1069 20.2522 16.0643 20.251 16.0205ZM3.73145 16.1465C4.62462 17.9241 6.07335 19.3728 7.85059 20.2666C7.89215 20.2582 7.93476 20.2522 7.97852 20.251C7.64422 19.1175 7.38107 17.9684 7.1875 16.8105C6.03003 16.617 4.8812 16.3547 3.74805 16.0205C3.74689 16.0637 3.73957 16.1054 3.73145 16.1465ZM15.4902 8.50879C13.1726 8.21422 10.8264 8.21414 8.50879 8.50879C8.21414 10.8264 8.21422 13.1726 8.50879 15.4902C10.8265 15.7849 13.1725 15.7848 15.4902 15.4902C15.7848 13.1725 15.7849 10.8265 15.4902 8.50879ZM17.0283 8.74805C17.2707 10.9092 17.2707 13.0908 17.0283 15.252C18.2886 15.0191 19.5366 14.6985 20.7627 14.2891C20.8313 14.2662 20.9021 14.2546 20.9727 14.252C21.153 13.531 21.25 12.7768 21.25 12C21.25 11.2224 21.1524 10.4677 20.9717 9.74609C20.9023 9.74342 20.8319 9.73403 20.7627 9.71094C19.5366 9.30154 18.2886 8.98087 17.0283 8.74805ZM6.96973 8.74902C5.71018 8.98182 4.46275 9.30176 3.2373 9.71094C3.16774 9.73415 3.09708 9.74351 3.02734 9.74609C2.84668 10.4676 2.75 11.2225 2.75 12C2.75 12.7768 2.84604 13.5311 3.02637 14.252C3.0973 14.2545 3.16835 14.266 3.2373 14.2891C4.46277 14.6982 5.71016 15.0182 6.96973 15.251C6.72748 13.0905 6.72758 10.9095 6.96973 8.74902ZM7.85156 3.73145C6.02214 4.65109 4.53927 6.15885 3.65332 8.00781C4.8173 7.66018 5.99759 7.38649 7.1875 7.1875C7.38105 6.02998 7.64428 4.88123 7.97852 3.74805C7.93502 3.74682 7.89289 3.73974 7.85156 3.73145ZM15.9902 3.65234C16.3381 4.81673 16.6125 5.99719 16.8115 7.1875C18.0014 7.38645 19.1817 7.66022 20.3457 8.00781C19.4342 6.10582 17.8925 4.56329 15.9902 3.65234ZM12 2.75C11.2232 2.75 10.4689 2.84604 9.74805 3.02637C9.7455 3.0973 9.73394 3.16837 9.71094 3.2373C9.30176 4.46275 8.98182 5.71018 8.74902 6.96973C10.9095 6.72753 13.0905 6.72753 15.251 6.96973C15.0182 5.71016 14.6982 4.46277 14.2891 3.2373C14.2658 3.16774 14.2565 3.09707 14.2539 3.02734C13.5324 2.84668 12.7775 2.75 12 2.75Z" fill="white"/>
</svg>
