<svg width="24" height="24" viewBox="0 0 24 24" fill="none" xmlns="http://www.w3.org/2000/svg">
<path d="M21.25 8.5C21.25 6.89295 20.7942 5.86869 20.1143 5.2373C19.4242 4.59664 18.385 4.25 17 4.25H7C5.61505 4.25 4.57576 4.59664 3.88574 5.2373C3.20579 5.86869 2.75 6.89295 2.75 8.5V15.5C2.75 17.107 3.20579 18.1313 3.88574 18.7627C4.57576 19.4034 5.61505 19.75 7 19.75H17C18.385 19.75 19.4242 19.4034 20.1143 18.7627C20.7942 18.1313 21.25 17.107 21.25 15.5V8.5ZM22.75 15.5C22.75 17.3929 22.2057 18.8687 21.1357 19.8623C20.0758 20.8466 18.615 21.25 17 21.25H7C5.38503 21.25 3.92424 20.8466 2.86426 19.8623C1.79429 18.8687 1.25 17.3929 1.25 15.5V8.5C1.25 6.60712 1.79429 5.13131 2.86426 4.1377C3.92424 3.15342 5.38503 2.75 7 2.75H17C18.615 2.75 20.0758 3.15342 21.1357 4.1377C22.2057 5.13131 22.75 6.60712 22.75 8.5V15.5Z" fill="white"/>
<path d="M16.5322 8.41407C16.8558 8.1557 17.3274 8.20864 17.5859 8.53224C17.8443 8.85588 17.7914 9.32748 17.4678 9.58595L14.3379 12.0859L14.3369 12.0869C13.0336 13.1243 10.9566 13.1242 9.6533 12.0869L9.65134 12.085L6.53123 9.58497C6.208 9.32596 6.15601 8.8545 6.41502 8.53126C6.67403 8.20803 7.14549 8.15605 7.46873 8.41505L10.5869 10.9131C11.3435 11.5154 12.6467 11.5154 13.4033 10.9131L16.5322 8.41407Z" fill="white"/>
</svg>
