<svg width="24" height="24" viewBox="0 0 24 24" fill="none" xmlns="http://www.w3.org/2000/svg">
<path d="M18.9471 2.25385C19.3251 2.29246 19.62 2.61179 19.62 2.99994C19.62 3.3881 19.3251 3.70741 18.9471 3.74603L18.87 3.74994H14.8348L10.7098 20.2499H14.37C14.7842 20.2499 15.12 20.5857 15.12 20.9999C15.12 21.4142 14.7842 21.7499 14.37 21.7499H5.12C4.70578 21.7499 4.37 21.4142 4.37 20.9999C4.37002 20.5857 4.7058 20.2499 5.12 20.2499H9.16492L13.2899 3.74994H9.62C9.20578 3.74994 8.87 3.41415 8.87 2.99994C8.87002 2.58575 9.2058 2.24994 9.62 2.24994H18.87L18.9471 2.25385Z" fill="white"/>
</svg>
