<svg width="24" height="24" viewBox="0 0 24 24" fill="none" xmlns="http://www.w3.org/2000/svg">
<path d="M12.0003 5.69043C12.4144 5.69058 12.7503 6.02631 12.7503 6.44043V9.77051C12.75 10.1844 12.4142 10.5204 12.0003 10.5205C11.5862 10.5205 11.2506 10.1845 11.2503 9.77051V6.44043C11.2503 6.02622 11.5861 5.69043 12.0003 5.69043Z" fill="white"/>
<path fill-rule="evenodd" clip-rule="evenodd" d="M12.0198 1.25C16.0943 1.25012 19.4286 4.58607 19.4397 8.6582V10.7598C19.4397 11.0061 19.4943 11.3618 19.597 11.7354C19.6997 12.109 19.8347 12.4409 19.9622 12.6523L19.9632 12.6543L21.2337 14.7744C22.2079 16.4032 21.4345 18.5185 19.6272 19.1211C18.403 19.5283 17.1535 19.8339 15.8919 20.0391C15.3703 21.6923 13.8201 22.9003 12.0003 22.9004C10.8805 22.9004 9.85209 22.4327 9.11943 21.7002C8.66194 21.2426 8.30793 20.6696 8.10673 20.0312C6.86265 19.8262 5.63075 19.5238 4.42314 19.1221C3.50711 18.8167 2.8271 18.1775 2.52372 17.3564C2.22051 16.5357 2.321 15.6073 2.81572 14.7764L2.81669 14.7744L4.0872 12.6543L4.08818 12.6523C4.21628 12.44 4.35096 12.1098 4.45341 11.7383C4.55578 11.367 4.61064 11.0116 4.61064 10.7598V8.66016C4.61064 4.56606 7.92577 1.2502 12.0198 1.25ZM9.86259 20.2539C9.95626 20.3927 10.0634 20.5221 10.181 20.6396C10.6483 21.1068 11.3003 21.4004 12.0003 21.4004C12.8848 21.4003 13.6705 20.9451 14.136 20.2588C12.7142 20.3838 11.2842 20.382 9.86259 20.2539ZM12.0198 2.75C8.7542 2.7502 6.11064 5.39449 6.11064 8.66016V10.7598C6.11064 11.1879 6.02478 11.6831 5.8997 12.1367C5.77471 12.59 5.59416 13.0602 5.37236 13.4277L4.1038 15.5459C3.81979 16.0241 3.79953 16.4798 3.93095 16.8359C4.06263 17.1923 4.37389 17.5236 4.89775 17.6982C9.52378 19.237 14.5266 19.2369 19.1526 17.6982C20.0448 17.4007 20.4318 16.3559 19.9466 15.5449L18.678 13.4277L18.597 13.2842C18.4119 12.9407 18.2598 12.5295 18.1507 12.1328C18.0259 11.6789 17.9397 11.1834 17.9397 10.7598V8.66211L17.9319 8.35938C17.7645 5.25043 15.1637 2.75012 12.0198 2.75Z" fill="white"/>
</svg>
