<svg width="24" height="24" viewBox="0 0 24 24" fill="none" xmlns="http://www.w3.org/2000/svg">
<path d="M12.1721 12.4375C14.0995 12.4375 16.0649 12.9215 17.5842 13.9355C18.9508 14.8447 19.7346 16.1194 19.7346 17.4912C19.7346 18.7769 19.0473 19.9795 17.8362 20.8779L17.5872 21.0537C16.063 22.0735 14.0942 22.5595 12.1653 22.5596C10.2362 22.5596 8.26665 22.0735 6.74243 21.0537C5.37733 20.1447 4.59507 18.87 4.59497 17.499C4.59497 16.1277 5.37716 14.8505 6.74243 13.9365L6.74536 13.9346C8.27369 12.9212 10.2438 12.4376 12.1721 12.4375ZM12.1721 13.9375C10.4707 13.9376 8.80595 14.369 7.57446 15.1855C6.52196 15.8912 6.09497 16.7435 6.09497 17.499C6.09507 18.2074 6.47017 18.9993 7.38501 19.6729L7.57544 19.8057L7.57739 19.8066C8.80315 20.6267 10.4645 21.0596 12.1653 21.0596C13.8661 21.0595 15.5275 20.6268 16.7532 19.8066C17.8076 19.1007 18.2346 18.2473 18.2346 17.4912C18.2346 16.7355 17.8076 15.8854 16.7542 15.1846L16.7532 15.1836C15.5328 14.3686 13.8738 13.9375 12.1721 13.9375ZM12.0002 1.25C14.8643 1.25023 17.1897 3.57636 17.1897 6.44043V6.44336C17.1779 9.24364 14.9705 11.5255 12.1848 11.6191C12.1516 11.6202 12.1183 11.6195 12.0852 11.6162C12.037 11.6114 11.9648 11.6111 11.8977 11.6172C11.8669 11.62 11.8358 11.6202 11.8049 11.6191C9.01994 11.5254 6.81004 9.24356 6.80981 6.44043C6.80981 3.57737 9.125 1.25008 12.0002 1.25ZM12.0002 2.75C9.95563 2.75008 8.30981 4.40359 8.30981 6.44043C8.31004 8.43242 9.87358 10.046 11.842 10.1191C11.9414 10.1133 12.0446 10.1134 12.1438 10.1191C14.1125 10.0481 15.6795 8.43529 15.6897 6.44043L15.6848 6.25C15.5857 4.30243 13.9721 2.75023 12.0002 2.75Z" fill="white"/>
</svg>
