<svg width="24" height="24" viewBox="0 0 24 24" fill="none" xmlns="http://www.w3.org/2000/svg">
<path d="M10.9331 12.2142C11.0356 11.8132 11.4441 11.5711 11.8452 11.6732L14.7446 12.4134C15.1459 12.5158 15.3889 12.9242 15.2866 13.3255C15.1841 13.7266 14.7757 13.9688 14.3745 13.8666L11.4741 13.1263C11.0731 13.0237 10.8307 12.6154 10.9331 12.2142Z" fill="white"/>
<path d="M11.9136 8.34508C12.0156 7.94398 12.4234 7.70134 12.8247 7.80308L17.6743 9.03258C18.0756 9.13434 18.3186 9.54243 18.2173 9.94371C18.1155 10.3451 17.7075 10.5883 17.3061 10.4867L12.4555 9.25621C12.0542 9.15424 11.8118 8.74647 11.9136 8.34508Z" fill="white"/>
<path fill-rule="evenodd" clip-rule="evenodd" d="M11.1909 2.04722C12.445 1.61441 13.9397 1.68141 15.6694 2.09019L15.6704 2.08922L17.3403 2.47984C19.5074 2.98671 21.1132 3.81575 21.9907 5.22984C22.8679 6.64394 22.8969 8.4489 22.3901 10.6107L21.4096 14.7884L21.4106 14.7894C20.9754 16.6596 20.2994 18.1112 19.2124 19.0414C18.1588 19.9429 16.8277 20.2633 15.2534 20.1566C14.6002 20.5617 13.8265 20.8946 12.9428 21.183L12.9419 21.182L11.3647 21.7025L11.3598 21.7035C9.30524 22.3659 7.55174 22.4852 6.10789 21.7464C4.66447 21.0077 3.73432 19.5154 3.06687 17.4613L1.7866 13.5111L1.78562 13.5101C1.12346 11.4563 1.00241 9.70109 1.73777 8.25621C2.4733 6.81113 3.96174 5.87986 6.01511 5.21715L7.59519 4.69761L7.603 4.69468C7.9012 4.60014 8.20068 4.51275 8.49656 4.44175C9.13603 3.2723 10.0103 2.45483 11.1909 2.04722ZM6.48386 6.64195L6.47996 6.6439C4.56582 7.26109 3.54109 8.02055 3.07468 8.93687C2.60788 9.85427 2.59592 11.1338 3.21335 13.0492L4.49363 16.9984C5.11608 18.914 5.8752 19.9426 6.79148 20.4115C7.65036 20.8508 8.82649 20.8898 10.5483 20.3841L10.8999 20.2757L12.4751 19.7572H12.477C12.5323 19.7392 12.5864 19.7188 12.6401 19.7005L11.5864 19.4496C9.43001 18.9376 7.82844 18.1083 6.95164 16.6966C6.23893 15.549 6.08379 14.1439 6.32273 12.4974C6.3595 12.244 6.4056 11.9849 6.46043 11.7201C6.48783 11.5877 6.5176 11.4539 6.54929 11.3187L7.52976 7.12925C7.57386 6.94182 7.62078 6.75723 7.66941 6.5775C7.67544 6.55527 7.68186 6.5332 7.68796 6.51109C7.71521 6.41225 7.74206 6.31434 7.77097 6.21812L6.48386 6.64195ZM15.3266 3.55015C13.7179 3.16971 12.5477 3.16579 11.6802 3.46519C10.848 3.75258 10.1934 4.35404 9.67527 5.42515C9.67439 5.42698 9.67421 5.42919 9.67332 5.43101C9.5735 5.63398 9.47977 5.85675 9.39109 6.09898C9.24361 6.50258 9.11014 6.96027 8.98972 7.47203L8.01023 11.6605C7.92159 12.0386 7.85387 12.3931 7.80613 12.724C7.75832 13.0549 7.73111 13.3632 7.72214 13.6507C7.69256 14.609 7.8729 15.337 8.22605 15.9056C8.33208 16.0763 8.45826 16.2393 8.60593 16.3949C8.65526 16.4468 8.70692 16.4979 8.76121 16.5482C9.08635 16.8494 9.50186 17.1203 10.0249 17.3607C10.548 17.6011 11.1783 17.8114 11.9331 17.9906L13.6137 18.39L13.6157 18.391C14.0271 18.4903 14.4119 18.561 14.77 18.6058L15.1196 18.642L15.1313 18.6429C16.5605 18.7803 17.5291 18.5071 18.2368 17.9017C18.9698 17.2744 19.5439 16.1893 19.9487 14.4496L19.9497 14.4486L20.9292 10.2689C21.4022 8.25108 21.2813 6.93064 20.7163 6.01988C20.1511 5.10933 19.0209 4.41283 16.9985 3.9398L15.3296 3.55015H15.3266Z" fill="white"/>
</svg>
