<svg width="24" height="24" viewBox="0 0 24 24" fill="none" xmlns="http://www.w3.org/2000/svg">
<path d="M10.1942 1.50733C10.4661 1.19524 10.9405 1.16243 11.2528 1.43409C11.5647 1.70593 11.5974 2.17939 11.326 2.4917L9.9198 4.10694C10.5688 3.97765 11.2614 3.89991 11.9999 3.89991C17.204 3.89991 21.4197 8.11569 21.4198 13.3198C21.4198 18.524 17.2041 22.7398 11.9999 22.7398C6.7957 22.7397 2.57996 18.524 2.57996 13.3198C2.57999 11.3863 3.16693 9.58195 4.16589 8.0835C4.39568 7.7392 4.86142 7.64601 5.20593 7.87549C5.55047 8.10519 5.64344 8.57092 5.41394 8.91553C4.57297 10.177 4.07999 11.6935 4.07996 13.3198C4.07996 17.6956 7.62413 21.2397 11.9999 21.2398C16.3757 21.2398 19.9198 17.6956 19.9198 13.3198C19.9197 8.94412 16.3756 5.39991 11.9999 5.39991C11.1574 5.39991 10.3821 5.51579 9.66589 5.70264L11.6825 7.17432C12.0167 7.41857 12.0896 7.88773 11.8456 8.22217C11.6013 8.55657 11.1322 8.62943 10.7977 8.38526L7.42761 5.9253C7.39613 5.90229 7.3675 5.87679 7.3407 5.8501C7.33251 5.84194 7.32402 5.83415 7.31628 5.82569C7.31237 5.82141 7.30934 5.81637 7.30554 5.81202C7.28634 5.79003 7.27002 5.76633 7.25378 5.74268C7.23885 5.7209 7.22423 5.69929 7.21179 5.67627C7.19979 5.65407 7.19017 5.63103 7.18054 5.60791C7.17182 5.58697 7.16387 5.56601 7.1571 5.54444C7.14981 5.52118 7.14354 5.4979 7.13855 5.47413C7.13338 5.44952 7.12952 5.4249 7.12683 5.39991C7.12432 5.37648 7.12324 5.35316 7.12292 5.32959C7.12261 5.30642 7.12304 5.28344 7.12488 5.26026C7.12672 5.23699 7.12966 5.214 7.13367 5.19092C7.13813 5.16535 7.14309 5.13994 7.15027 5.11475C7.15644 5.09299 7.16356 5.07157 7.17175 5.0503C7.18364 5.01955 7.19656 4.98896 7.21277 4.95948C7.23819 4.91317 7.26847 4.86813 7.30457 4.82666L10.1942 1.50733Z" fill="white"/>
</svg>
