<svg width="24" height="24" viewBox="0 0 24 24" fill="none" xmlns="http://www.w3.org/2000/svg">
<path d="M9.01009 2.74957C9.42414 2.74961 9.75987 3.08557 9.76009 3.49957V20.4996C9.76009 20.5445 9.75496 20.5887 9.7474 20.6314C9.73809 20.684 9.72308 20.7356 9.70248 20.7857C9.69291 20.8089 9.68005 20.8302 9.6683 20.8521C9.63444 20.9154 9.59369 20.9764 9.54037 21.0298C9.48011 21.0902 9.41075 21.135 9.33822 21.1705C9.32464 21.1771 9.3122 21.1861 9.29818 21.192C9.27637 21.201 9.25321 21.2055 9.2308 21.2125C9.16124 21.234 9.08863 21.2484 9.01205 21.2486H9.01009C8.96543 21.2486 8.92175 21.2453 8.87923 21.2379C8.8737 21.2369 8.86815 21.236 8.86263 21.2349C8.84791 21.232 8.83406 21.226 8.81966 21.2222C8.78645 21.2135 8.75303 21.2053 8.72103 21.192C8.70254 21.1842 8.686 21.1728 8.6683 21.1636C8.60121 21.1291 8.53609 21.087 8.47982 21.0308L3.45931 16.0211C3.1665 15.7285 3.16596 15.2526 3.45834 14.9595C3.75084 14.6665 4.22666 14.6663 4.51986 14.9586L8.26009 18.692V3.49957C8.26032 3.08555 8.59602 2.74957 9.01009 2.74957Z" fill="white"/>
<path d="M14.9896 2.74957C15.0344 2.74957 15.0788 2.75375 15.1214 2.76129C15.127 2.76227 15.1325 2.76312 15.138 2.76422C15.146 2.76582 15.1536 2.76921 15.1615 2.77106C15.2926 2.80173 15.4175 2.86636 15.5199 2.96832L20.5394 7.97906C20.8324 8.27168 20.8329 8.74649 20.5404 9.03961C20.2478 9.33261 19.773 9.33304 19.4798 9.04059L15.7396 5.30817V20.4996C15.7396 20.9138 15.4038 21.2496 14.9896 21.2496C14.5756 21.2493 14.2396 20.9136 14.2396 20.4996V3.49957C14.2396 3.45461 14.2437 3.41052 14.2513 3.36774C14.2608 3.31417 14.276 3.26137 14.2972 3.21051C14.3022 3.19855 14.3102 3.18797 14.3158 3.17633C14.3514 3.10207 14.3969 3.03085 14.4583 2.9693C14.5716 2.85583 14.7128 2.78703 14.8597 2.76129C14.9019 2.7539 14.9453 2.7496 14.9896 2.74957Z" fill="white"/>
</svg>
