<svg width="24" height="24" viewBox="0 0 24 24" fill="none" xmlns="http://www.w3.org/2000/svg">
<path fill-rule="evenodd" clip-rule="evenodd" d="M14.7002 2.25C17.0241 2.25003 18.8454 2.71068 20.0674 3.93262C21.2893 5.15455 21.75 6.97593 21.75 9.2998V14.7002C21.75 17.0241 21.2893 18.8454 20.0674 20.0674C18.8454 21.2893 17.0241 21.75 14.7002 21.75H9.2998C6.97593 21.75 5.15455 21.2893 3.93262 20.0674C2.71068 18.8454 2.25003 17.0241 2.25 14.7002V9.2998C2.25003 6.97593 2.71068 5.15455 3.93262 3.93262C5.15455 2.71068 6.97593 2.25003 9.2998 2.25H14.7002ZM9.2998 3.75C7.12389 3.75003 5.79617 4.19016 4.99316 4.99316C4.19016 5.79617 3.75003 7.12389 3.75 9.2998V14.7002C3.75003 16.8761 4.19016 18.2038 4.99316 19.0068C5.79617 19.8098 7.12389 20.25 9.2998 20.25H14.7002C16.8761 20.25 18.2038 19.8098 19.0068 19.0068C19.8098 18.2038 20.25 16.8761 20.25 14.7002V9.2998C20.25 7.12389 19.8098 5.79617 19.0068 4.99316C18.2038 4.19016 16.8761 3.75003 14.7002 3.75H9.2998Z" fill="white"/>
</svg>
