<svg width="24" height="24" viewBox="0 0 24 24" fill="none" xmlns="http://www.w3.org/2000/svg">
<path d="M12.3799 15.4496C12.794 15.4496 13.1297 15.7856 13.1299 16.1996C13.1299 16.6138 12.7941 16.9496 12.3799 16.9496H8C7.58579 16.9496 7.25 16.6138 7.25 16.1996C7.2502 15.7856 7.58591 15.4496 8 15.4496H12.3799Z" fill="white"/>
<path d="M15 11.4496C15.4141 11.4496 15.7498 11.7856 15.75 12.1996C15.75 12.6138 15.4142 12.9496 15 12.9496H8C7.58579 12.9496 7.25 12.6138 7.25 12.1996C7.2502 11.7856 7.58591 11.4496 8 11.4496H15Z" fill="white"/>
<path fill-rule="evenodd" clip-rule="evenodd" d="M14 1.25041C14.4352 1.25041 15.1904 1.22598 15.791 1.62639C16.3264 1.98337 16.6095 2.56221 16.708 3.32365C18.1491 3.47484 19.3986 3.88112 20.2988 4.85393C21.3273 5.96569 21.75 7.65516 21.75 10.0004V16.0004C21.75 18.0134 21.5111 19.7687 20.4395 20.9936C19.3459 22.2434 17.5647 22.7504 15 22.7504H9C6.43533 22.7504 4.65411 22.2434 3.56055 20.9936C2.48888 19.7687 2.25004 18.0134 2.25 16.0004V10.0004C2.25001 7.65982 2.67242 5.97152 3.7002 4.85881C4.60003 3.8848 5.84909 3.47463 7.29102 3.32268C7.3896 2.56165 7.67384 1.98324 8.20898 1.62639C8.80959 1.22598 9.56476 1.25041 10 1.25041H14ZM7.31445 4.83147C6.12322 4.97384 5.33185 5.30261 4.80176 5.87639C4.16232 6.5687 3.75001 7.78145 3.75 10.0004V16.0004C3.75004 17.9868 4.01142 19.2313 4.68945 20.0063C5.34591 20.7564 6.56481 21.2504 9 21.2504H15C17.4352 21.2504 18.6541 20.7564 19.3105 20.0063C19.9886 19.2313 20.25 17.9868 20.25 16.0004V10.0004C20.25 7.77602 19.8371 6.56423 19.1982 5.87346C18.6722 5.30486 17.8888 4.97802 16.7109 4.8344C16.6669 5.15237 16.574 5.49145 16.374 5.79143C15.9178 6.47553 15.0989 6.75041 14 6.75041H10C9.56481 6.75041 8.80956 6.77471 8.20898 6.37443C7.71048 6.0421 7.43036 5.51679 7.31445 4.83147ZM10 2.75041C9.43524 2.75041 9.19041 2.77484 9.04102 2.87443C8.97509 2.91845 8.75 3.10031 8.75 4.00041C8.75007 4.90102 8.97533 5.0826 9.04102 5.12639C9.19042 5.22588 9.43547 5.25041 10 5.25041H14C14.8997 5.25041 15.0819 5.02544 15.126 4.9594C15.2255 4.81004 15.25 4.56489 15.25 4.00041C15.25 3.10031 15.0249 2.91845 14.959 2.87443C14.8096 2.77484 14.5648 2.75041 14 2.75041H10Z" fill="white"/>
</svg>
