<svg width="24" height="24" viewBox="0 0 24 24" fill="none" xmlns="http://www.w3.org/2000/svg">
<path fill-rule="evenodd" clip-rule="evenodd" d="M12.0042 16.2346C13.1725 16.2347 14.3816 16.5257 15.3264 17.1555C16.1875 17.7297 16.7169 18.5621 16.717 19.4895C16.717 20.3592 16.2516 21.1452 15.4836 21.7132L15.3264 21.8235C14.3775 22.4579 13.1692 22.7522 12.0002 22.7522C10.8311 22.7522 9.62211 22.4581 8.6731 21.8235C7.81246 21.2493 7.28247 20.4167 7.28247 19.4895C7.28265 18.562 7.81283 17.7297 8.67407 17.1555L8.67603 17.1546C9.62496 16.526 10.8355 16.2346 12.0042 16.2346ZM12.0042 17.7346C11.0613 17.7346 10.156 17.9721 9.50513 18.4026L9.5061 18.4036C8.95776 18.7692 8.78265 19.1773 8.78247 19.4895C8.78247 19.7628 8.91663 20.1094 9.31763 20.4368L9.5061 20.5755L9.50708 20.5764C10.158 21.0117 11.0596 21.2522 12.0002 21.2522C12.9409 21.2522 13.8425 21.0117 14.4934 20.5764L14.4944 20.5755C15.0426 20.2098 15.217 19.8018 15.217 19.4895C15.2169 19.1773 15.0425 18.7691 14.4944 18.4036C13.8495 17.9737 12.9479 17.7347 12.0042 17.7346Z" fill="white"/>
<path fill-rule="evenodd" clip-rule="evenodd" d="M11.9104 8.72C13.7563 8.72024 15.2405 10.2179 15.2405 12.0501V12.055C15.2277 13.8489 13.8146 15.328 12.0217 15.3802C11.9848 15.3812 11.948 15.3758 11.9114 15.3714H11.9094C11.8989 15.3701 11.8877 15.3711 11.8772 15.3694C11.8886 15.3713 11.8966 15.3712 11.9016 15.3714C11.8623 15.3764 11.8231 15.3806 11.7834 15.3792C10.0005 15.3146 8.58036 13.8541 8.58032 12.0501C8.58032 10.2059 10.0662 8.72 11.9104 8.72ZM11.9104 10.22C10.8946 10.22 10.0803 11.0343 10.0803 12.0501C10.0804 13.0325 10.8397 13.8211 11.7981 13.8763C11.8701 13.8706 11.9439 13.8714 12.0159 13.8772C12.9638 13.8298 13.7306 13.0403 13.7405 12.0501L13.7307 11.8636C13.6374 10.943 12.8608 10.2202 11.9104 10.22Z" fill="white"/>
<path d="M11.9055 15.3723C11.9046 15.3723 11.903 15.3714 11.9016 15.3714C11.9039 15.3711 11.9072 15.3717 11.9094 15.3714C11.9083 15.3716 11.9064 15.3722 11.9055 15.3723Z" fill="white"/>
<path d="M2.64478 9.67508C3.90497 8.83889 5.63916 8.58555 7.15942 8.85184C7.56724 8.92346 7.84025 9.31211 7.7688 9.72C7.69709 10.1276 7.30831 10.4006 6.90063 10.3294C5.68121 10.1158 4.35457 10.3416 3.47485 10.9251C2.92745 11.2905 2.75234 11.698 2.7522 12.01C2.75234 12.2833 2.88654 12.6301 3.28735 12.9573L3.47583 13.096L3.47681 13.097C4.34566 13.6789 5.65245 13.9056 6.87524 13.7005C7.28374 13.6319 7.67092 13.9082 7.7395 14.3167C7.80756 14.7247 7.53227 15.1112 7.12427 15.18C5.60732 15.4346 3.89278 15.1819 2.64185 14.344C1.78173 13.7699 1.25236 12.9368 1.2522 12.01C1.25235 11.0827 1.78275 10.2502 2.6438 9.67606L2.64478 9.67508Z" fill="white"/>
<path d="M16.8098 8.85184C18.235 8.60217 19.8479 8.80984 21.0823 9.52567L21.3245 9.67508L21.3254 9.67606C22.1867 10.2502 22.7169 11.0825 22.717 12.01C22.7169 12.9371 22.187 13.7689 21.3264 14.343C20.0756 15.1806 18.3626 15.4345 16.8459 15.18C16.4379 15.1113 16.1617 14.7248 16.2297 14.3167C16.2983 13.9083 16.6856 13.632 17.094 13.7005C18.3168 13.9057 19.6235 13.6788 20.4924 13.097L20.4934 13.096C21.0418 12.7304 21.2169 12.3223 21.217 12.01C21.2169 11.6978 21.0418 11.2897 20.4934 10.9241C19.6137 10.3415 18.2882 10.116 17.0696 10.3294C16.6619 10.4006 16.2731 10.1276 16.2014 9.72C16.13 9.31228 16.4023 8.92369 16.8098 8.85184Z" fill="white"/>
<path fill-rule="evenodd" clip-rule="evenodd" d="M6.05981 1.25027C7.90399 1.25032 9.38989 2.73617 9.38989 4.58035C9.38971 6.38422 7.96965 7.84486 6.18677 7.90945C6.14599 7.91091 6.10514 7.9078 6.0647 7.90262C6.02426 7.90778 5.9834 7.91093 5.94263 7.90945C4.15889 7.8447 2.74273 6.38396 2.72974 4.58524V4.58035C2.72974 2.74811 4.21382 1.25041 6.05981 1.25027ZM6.05981 2.75027C5.04603 2.75041 4.22974 3.57275 4.22974 4.58035C4.23968 5.56539 5.00223 6.3517 5.95825 6.40652C6.02868 6.40103 6.10071 6.40105 6.17114 6.40652C7.12985 6.35174 7.88971 5.56297 7.88989 4.58035C7.88989 3.56459 7.07556 2.75032 6.05981 2.75027Z" fill="white"/>
<path fill-rule="evenodd" clip-rule="evenodd" d="M17.9104 1.25027C19.7563 1.25052 21.2405 2.74818 21.2405 4.58035V4.58524C21.2275 6.38387 19.8112 7.84458 18.0276 7.90945C17.9869 7.91093 17.9459 7.90776 17.9055 7.90262C17.8651 7.9078 17.8242 7.91089 17.7834 7.90945C16.0006 7.84486 14.5805 6.38422 14.5803 4.58035C14.5803 2.73614 16.0662 1.25027 17.9104 1.25027ZM17.9104 2.75027C16.8946 2.75027 16.0803 3.56456 16.0803 4.58035C16.0805 5.56269 16.8398 6.35134 17.7981 6.40652C17.8685 6.40102 17.9406 6.40108 18.011 6.40652C18.9673 6.35204 19.7305 5.56564 19.7405 4.58035L19.7307 4.39383C19.6374 3.47326 18.8608 2.7505 17.9104 2.75027Z" fill="white"/>
</svg>
