<svg width="24" height="24" viewBox="0 0 24 24" fill="none" xmlns="http://www.w3.org/2000/svg">
<path d="M19 20.25C19.4142 20.25 19.75 20.5858 19.75 21C19.75 21.4142 19.4142 21.75 19 21.75H5C4.58579 21.75 4.25 21.4142 4.25 21C4.25 20.5858 4.58579 20.25 5 20.25H19Z" fill="white"/>
<path d="M19 2.25C19.4142 2.25 19.75 2.58579 19.75 3V10C19.75 14.2842 16.2842 17.75 12 17.75C7.71579 17.75 4.25 14.2842 4.25 10V3C4.25 2.58579 4.58579 2.25 5 2.25C5.41421 2.25 5.75 2.58579 5.75 3V10C5.75 13.4558 8.54421 16.25 12 16.25C15.4558 16.25 18.25 13.4558 18.25 10V3C18.25 2.58579 18.5858 2.25 19 2.25Z" fill="white"/>
</svg>
