<svg width="24" height="24" viewBox="0 0 24 24" fill="none" xmlns="http://www.w3.org/2000/svg">
<path d="M12 12.6496C14.4735 12.6496 16.7496 14.3095 16.75 16.6594C16.75 17.0736 16.4142 17.4094 16 17.4094C15.5858 17.4094 15.25 17.0736 15.25 16.6594C15.2496 15.4098 13.946 14.1496 12 14.1496C10.054 14.1496 8.75044 15.4098 8.75 16.6594C8.75 17.0736 8.41421 17.4094 8 17.4094C7.58579 17.4094 7.25 17.0736 7.25 16.6594C7.25041 14.3095 9.52653 12.6496 12 12.6496Z" fill="white"/>
<path fill-rule="evenodd" clip-rule="evenodd" d="M12 5.59002C13.701 5.59006 15.0801 6.96907 15.0801 8.67009C15.08 10.371 13.701 11.7501 12 11.7502C10.2991 11.7501 8.91999 10.371 8.91992 8.67009C8.91993 6.96909 10.299 5.59008 12 5.59002ZM12 7.09002C11.1274 7.09008 10.4199 7.79755 10.4199 8.67009C10.42 9.54261 11.1275 10.2501 12 10.2502C12.8725 10.2501 13.58 9.54263 13.5801 8.67009C13.5801 7.79754 12.8726 7.09006 12 7.09002Z" fill="white"/>
<path fill-rule="evenodd" clip-rule="evenodd" d="M10.0449 1.77068C11.1731 1.11938 12.5488 1.08032 13.7129 1.64763L13.9424 1.76873L13.9453 1.77068L19.8848 5.20037L19.8906 5.2033C21.0861 5.90588 21.8301 7.18022 21.8301 8.58025V15.4201C21.83 16.8088 21.0863 18.0938 19.8896 18.797L19.8848 18.8L13.9453 22.2297C12.7421 22.9243 11.2572 22.9226 10.0479 22.2316L10.0449 22.2297L4.10547 18.8C2.90212 18.1053 2.16022 16.8164 2.16016 15.4201V8.58025C2.16016 7.19147 2.90384 5.90654 4.10059 5.2033L4.10547 5.20037L10.0449 1.77068ZM13.0557 2.99627C12.3338 2.64447 11.4857 2.6707 10.7949 3.06951L4.85938 6.49627C4.11632 6.93307 3.66016 7.72916 3.66016 8.58025V15.4201C3.66022 16.2836 4.11891 17.0759 4.85547 17.5011L10.792 20.9289C11.5426 21.3577 12.4586 21.3562 13.1953 20.9308L19.1348 17.5011C19.8753 17.0639 20.33 16.2695 20.3301 15.4201V8.58025C20.3301 7.72041 19.8742 6.93469 19.1299 6.49724L13.1982 3.07146L13.0557 2.99627Z" fill="white"/>
</svg>
