<svg width="16" height="16" viewBox="0 0 16 16" fill="none" xmlns="http://www.w3.org/2000/svg">
<g clip-path="url(#clip0_49_532)">
<path d="M7.99729 15.9937C7.99729 14.8856 7.78594 13.846 7.35754 12.875C6.94628 11.9039 6.37508 11.0528 5.65537 10.3331C4.93566 9.61342 4.09028 9.04793 3.11924 8.63667C2.1482 8.20827 1.10862 7.99692 0.000488281 7.99692C1.10862 7.99692 2.1482 7.79129 3.11924 7.37431C4.09028 6.94591 4.94137 6.37471 5.65537 5.655C6.37508 4.93529 6.94057 4.08991 7.35754 3.11887C7.78594 2.14783 7.99729 1.10825 7.99729 0.00012207C7.99729 1.10825 8.20292 2.14783 8.6199 3.11887C9.0483 4.08991 9.6195 4.941 10.3392 5.655C11.0589 6.37471 11.9043 6.94591 12.881 7.37431C13.8521 7.78558 14.8917 7.99692 15.9998 7.99692C14.8917 7.99692 13.8521 8.20827 12.881 8.63667C11.91 9.04793 11.0589 9.61342 10.3392 10.3331C9.6195 11.0528 9.0483 11.8982 8.6199 12.875C8.20354 13.8617 7.99173 14.9227 7.99729 15.9937Z" fill="url(#paint0_radial_49_532)"/>
</g>
<defs>
<radialGradient id="paint0_radial_49_532" cx="0" cy="0" r="1" gradientUnits="userSpaceOnUse" gradientTransform="translate(-0.905709 4.7696) rotate(18.68) scale(17.0218 136.368)">
<stop offset="0.07" stop-color="#9168C0"/>
<stop offset="0.34" stop-color="#5684D1"/>
<stop offset="0.67" stop-color="#1BA1E3"/>
</radialGradient>
<clipPath id="clip0_49_532">
<rect width="16" height="15.9936" fill="white"/>
</clipPath>
</defs>
</svg>
