<svg width="16" height="16" viewBox="0 0 16 16" fill="none" xmlns="http://www.w3.org/2000/svg">
<g clip-path="url(#clip0_49_544)">
<path d="M14.6625 6.58868C14.8369 6.06506 14.8974 5.51024 14.84 4.96135C14.7826 4.41246 14.6085 3.88216 14.3296 3.40597C13.916 2.68567 13.2842 2.1154 12.5255 1.77745C11.7667 1.43949 10.9202 1.35132 10.1081 1.52567C9.7419 1.11287 9.2917 0.783057 8.78768 0.558312C8.28366 0.333567 7.73745 0.21907 7.18561 0.222486C6.35537 0.220492 5.54594 0.482174 4.874 0.969812C4.20206 1.45745 3.70231 2.14585 3.44679 2.9358C2.90584 3.04648 2.39478 3.27146 1.94783 3.59567C1.50088 3.91989 1.12835 4.33585 0.855199 4.81571C0.438424 5.53403 0.260546 6.36615 0.347215 7.19209C0.433884 8.01803 0.78062 8.79511 1.33743 9.41127C1.16304 9.93494 1.10252 10.4898 1.15993 11.0388C1.21734 11.5877 1.39135 12.1181 1.67032 12.5944C2.08398 13.3146 2.71574 13.8848 3.47447 14.2228C4.23319 14.5607 5.07966 14.6489 5.89176 14.4747C6.25811 14.8874 6.70839 15.2172 7.21247 15.4419C7.71655 15.6665 8.26281 15.7809 8.81468 15.7775C9.64533 15.7797 10.4552 15.5179 11.1274 15.0299C11.7996 14.542 12.2994 13.853 12.5547 13.0626C13.0956 12.9519 13.6065 12.7268 14.0534 12.4026C14.5003 12.0784 14.8728 11.6625 15.1459 11.1827C15.5622 10.4644 15.7397 9.63253 15.6528 8.8069C15.566 7.98127 15.2192 7.20455 14.6625 6.58868ZM8.81585 14.7617C8.13386 14.7627 7.47323 14.5238 6.94955 14.0869C6.97327 14.0741 7.01489 14.0515 7.04172 14.0348L10.1389 12.2459C10.2167 12.2017 10.2814 12.1375 10.3261 12.06C10.3709 11.9825 10.3942 11.8944 10.3936 11.8049V7.43802L11.7026 8.19403C11.7095 8.19742 11.7155 8.20246 11.7199 8.2087C11.7244 8.21494 11.7273 8.22219 11.7283 8.22981V11.8461C11.7274 12.6186 11.4202 13.3592 10.8743 13.9056C10.3283 14.452 9.58792 14.7597 8.81546 14.7613L8.81585 14.7617ZM2.55233 12.0861C2.21081 11.4959 2.08774 10.8044 2.20466 10.1327C2.22799 10.1467 2.26766 10.1712 2.29683 10.1875L5.39398 11.9764C5.47116 12.0215 5.55893 12.0452 5.64831 12.0452C5.73769 12.0452 5.82547 12.0215 5.90265 11.9764L9.68425 9.79316V11.3052C9.68469 11.3129 9.68322 11.3206 9.67996 11.3276C9.6767 11.3345 9.67176 11.3406 9.66558 11.3452L6.5346 13.1532C5.86482 13.539 5.06936 13.6432 4.32278 13.4432C3.5762 13.2431 2.93947 12.7551 2.55233 12.0861ZM1.7376 5.32477C2.07779 4.7337 2.61512 4.28117 3.25545 4.04648C3.25545 4.07292 3.2539 4.12037 3.2539 4.15303V7.73124C3.25339 7.8206 3.27668 7.90847 3.32138 7.98584C3.36608 8.06321 3.43057 8.12728 3.50823 8.17147L7.28944 10.3547L5.98043 11.1107C5.97395 11.115 5.9665 11.1176 5.95875 11.1183C5.95101 11.119 5.94322 11.1177 5.93609 11.1146L2.80433 9.30549C2.13574 8.91828 1.64797 8.28174 1.448 7.53545C1.24803 6.78915 1.35218 5.9944 1.7376 5.32477ZM12.4936 7.82808L8.71202 5.64444L10.0214 4.88882C10.0279 4.88463 10.0352 4.88209 10.0429 4.88141C10.0506 4.88073 10.0583 4.88194 10.0654 4.88493L13.1967 6.69251C13.6765 6.96963 14.0673 7.37768 14.3235 7.86889C14.5797 8.36009 14.6907 8.91411 14.6434 9.4661C14.5962 10.0181 14.3927 10.5452 14.0567 10.9857C13.7207 11.4262 13.2662 11.7619 12.7464 11.9535V8.26831C12.7471 8.1791 12.7241 8.09131 12.6796 8.01395C12.6352 7.93659 12.571 7.87244 12.4936 7.82808ZM13.7964 5.86689C13.7735 5.8525 13.7334 5.82839 13.7046 5.81205L10.6071 4.02314C10.5299 3.97811 10.4421 3.95439 10.3528 3.95439C10.2634 3.95439 10.1756 3.97811 10.0984 4.02314L6.31721 6.20639V4.69437C6.31677 4.68667 6.31824 4.67899 6.3215 4.672C6.32476 4.66501 6.3297 4.65893 6.33588 4.65432L9.46647 2.84791C9.94617 2.57118 10.4948 2.4368 11.0481 2.46049C11.6014 2.48418 12.1365 2.66496 12.5907 2.98168C13.045 3.2984 13.3997 3.73795 13.6133 4.24891C13.8269 4.75986 13.8902 5.32108 13.7964 5.86689ZM5.60515 8.56153L4.29574 7.80552C4.28892 7.80208 4.28305 7.79702 4.27864 7.79078C4.27424 7.78455 4.27143 7.77732 4.27046 7.76974V4.15342C4.27092 3.59963 4.4291 3.05743 4.72647 2.59025C5.02385 2.12308 5.44813 1.75026 5.94966 1.51543C6.4512 1.28059 7.00924 1.19345 7.55849 1.26421C8.10774 1.33496 8.62549 1.56068 9.05113 1.91495C9.0202 1.93172 8.9896 1.9491 8.95935 1.96706L5.86182 3.75597C5.78416 3.80017 5.71966 3.86424 5.67496 3.94161C5.63027 4.01898 5.60697 4.10685 5.60748 4.1962L5.60515 8.56153ZM6.31643 7.02812L8.00034 6.0555L9.68503 7.02774V8.9722L8.00073 9.94444L6.31643 8.9722V7.02812Z" fill="white"/>
</g>
<defs>
<clipPath id="clip0_49_544">
<rect width="16" height="16" fill="white"/>
</clipPath>
</defs>
</svg>
